<svg version="1.1" xmlns="http://www.w3.org/2000/svg" xmlns:xlink="http://www.w3.org/1999/xlink" width="451.501" height="57.172" viewBox="0,0,451.501,57.172"><g transform="translate(-13.919,-147.57)"><g data-paper-data="{&quot;isPaintingLayer&quot;:true}" fill-rule="nonzero" stroke-linecap="butt" stroke-linejoin="miter" stroke-miterlimit="10" stroke-dasharray="" stroke-dashoffset="0" style="mix-blend-mode: normal"><path d="M464.17,194.887c0,4.752 -3.854,8.605 -8.605,8.605h-431.792c-4.752,0 -8.604,-3.854 -8.604,-8.605v-37.463c0,-4.752 3.852,-8.604 8.604,-8.604h431.791c4.754,0 8.605,3.852 8.605,8.604v37.463z" fill="#000000" stroke="#bfad59" stroke-width="2.5"/><path d="M30.5,177c0,-8.28427 6.71573,-15 15,-15c8.28427,0 15,6.71573 15,15c0,8.28427 -6.71573,15 -15,15c-8.28427,0 -15,-6.71573 -15,-15z" fill="#000000" stroke="#bfad59" stroke-width="2.5"/><text transform="translate(73.83334,189.22756) scale(0.34286,0.34286)" font-size="40" xml:space="preserve" fill="#ffffff" fill-rule="nonzero" stroke="none" stroke-width="1" stroke-linecap="butt" stroke-linejoin="miter" stroke-miterlimit="10" stroke-dasharray="" stroke-dashoffset="0" font-family="Serif" font-weight="normal" text-anchor="start" style="mix-blend-mode: normal"><tspan x="0" dy="0">予約可能です</tspan></text></g></g></svg>