<svg version="1.1" xmlns="http://www.w3.org/2000/svg" xmlns:xlink="http://www.w3.org/1999/xlink" width="287.27506" height="296.69111" viewBox="0,0,287.27506,296.69111"><g transform="translate(-96.36247,-31.65445)"><g data-paper-data="{&quot;isPaintingLayer&quot;:true}" fill-rule="nonzero" stroke-linejoin="miter" stroke-miterlimit="10" stroke-dasharray="" stroke-dashoffset="0" style="mix-blend-mode: normal"><path d="M97.11247,327.59556v-295.19111h285.77506v295.19111z" fill="#000000" stroke="#ffe777" stroke-width="1.5" stroke-linecap="butt"/><text transform="translate(147.38353,309.34281) scale(0.46308,0.46308)" font-size="40" xml:space="preserve" fill="#ffffff" fill-rule="nonzero" stroke="none" stroke-width="1" stroke-linecap="butt" stroke-linejoin="miter" stroke-miterlimit="10" stroke-dasharray="" stroke-dashoffset="0" font-family="Serif" font-weight="normal" text-anchor="start" style="mix-blend-mode: normal"><tspan x="0" dy="0">スマートフォンで予約</tspan></text><path d="M187,248v-190h106v190z" fill="none" stroke="#ffffff" stroke-width="2.5" stroke-linecap="butt"/><path d="M230.16667,69.66667h19" fill="none" stroke="#ffffff" stroke-width="2.5" stroke-linecap="round"/><path d="M231,230c0,-4.97056 4.02944,-9 9,-9c4.97056,0 9,4.02944 9,9c0,4.97056 -4.02944,9 -9,9c-4.97056,0 -9,-4.02944 -9,-9z" fill="#000000" stroke="#ffffff" stroke-width="1.5" stroke-linecap="butt"/><path d="M193.5,215v-134h93v134z" fill="none" stroke="#ffffff" stroke-width="2.5" stroke-linecap="butt"/><text transform="translate(239.66016,130.22792) scale(0.79982,0.79982)" font-size="40" xml:space="preserve" fill="#ffffff" fill-rule="nonzero" stroke="none" stroke-width="1" stroke-linecap="butt" stroke-linejoin="miter" stroke-miterlimit="10" stroke-dasharray="" stroke-dashoffset="0" font-family="Serif" font-weight="normal" text-anchor="start" style="mix-blend-mode: normal"><tspan x="0" dy="0">13</tspan></text><text transform="translate(204.5,131) scale(0.5,0.5)" font-size="40" xml:space="preserve" fill="#ffffff" fill-rule="nonzero" stroke="none" stroke-width="1" stroke-linecap="butt" stroke-linejoin="miter" stroke-miterlimit="10" stroke-dasharray="" stroke-dashoffset="0" font-family="Serif" font-weight="normal" text-anchor="start" style="mix-blend-mode: normal"><tspan x="0" dy="0">No.</tspan></text></g></g></svg>